<?xml version="1.0" encoding="UTF-8"?>
<!DOCTYPE svg PUBLIC "-//W3C//DTD SVG 1.1//EN" "http://www.w3.org/Graphics/SVG/1.1/DTD/svg11.dtd">
<svg xmlns="http://www.w3.org/2000/svg" version="1.1" width="1221px" height="86px" style="shape-rendering:geometricPrecision; text-rendering:geometricPrecision; image-rendering:optimizeQuality; fill-rule:evenodd; clip-rule:evenodd" xmlns:xlink="http://www.w3.org/1999/xlink">
<g><path style="opacity:0.76" fill="#fefffe" d="M 763.5,41.5 C 762.399,40.4017 761.066,40.235 759.5,41C 753.398,49.4957 747.398,49.4957 741.5,41C 646.833,40.3333 552.167,40.3333 457.5,41C 454.481,46.3506 450.148,48.0172 444.5,46C 442.463,43.7188 440.13,41.8855 437.5,40.5C 435.313,41.758 432.98,42.758 430.5,43.5C 428.559,43.1964 426.893,42.3631 425.5,41C 390.156,40.8003 354.823,40.3003 319.5,39.5C 282.405,39.1923 245.572,39.5256 209,40.5C 143.901,39.835 78.7344,39.1684 13.5,38.5C 13.7093,37.914 14.0426,37.414 14.5,37C 20,36.8333 25.5,36.6667 31,36.5C 148.917,36.2428 266.25,36.2428 383,36.5C 397.134,35.6916 411.301,35.1916 425.5,35C 426.645,33.1406 428.312,32.3073 430.5,32.5C 433.035,33.0369 435.369,34.0369 437.5,35.5C 440.616,32.4338 444.283,30.1004 448.5,28.5C 453.328,29.3313 456.662,31.9979 458.5,36.5C 551.925,35.6376 645.425,35.6376 739,36.5C 739.833,36.1667 740.667,35.8333 741.5,35.5C 745.218,28.81 750.218,27.4767 756.5,31.5C 757.833,33.1667 759.167,34.8333 760.5,36.5C 762.975,34.6696 765.641,33.3363 768.5,32.5C 770.688,32.3073 772.355,33.1406 773.5,35C 788.545,35.1825 803.545,35.6825 818.5,36.5C 851.284,36.4013 883.784,36.068 916,35.5C 1005.79,36.4396 1095.29,36.9396 1184.5,37C 1184.96,37.414 1185.29,37.914 1185.5,38.5C 1119.93,39.1684 1054.43,39.835 989,40.5C 937.068,39.9199 886.568,39.5866 837.5,39.5C 816.167,40.0303 794.834,40.5303 773.5,41C 770.307,44.1329 766.973,44.2995 763.5,41.5 Z"/></g>
<g><path style="opacity:0.02" fill="#fefffe" d="M 763.5,41.5 C 762.833,42.1667 762.833,42.1667 763.5,41.5 Z"/></g>
</svg>
